<svg xmlns="http://www.w3.org/2000/svg" width="59" height="59" viewBox="0 0 59 59">
  <g fill="#4A4A4A" fill-rule="evenodd">
    <path fill-rule="nonzero" d="M11.8209182,29.4997318 C11.8209182,27.038754 12.2910129,24.7254504 13.2318723,22.5713928 C14.1641902,20.4368164 15.4324224,18.565241 17.0329959,16.9646095 C18.6335006,15.3641049 20.5050569,14.0959001 22.6397635,13.1634929 C24.7938367,12.2226266 27.1071403,11.7525318 29.5681182,11.7525318 C32.0290716,11.7525318 34.3424296,12.2226376 36.4964192,13.1634929 C38.6311258,14.0959001 40.5026821,15.3641049 42.103204,16.9646267 C43.7037343,18.565215 44.9719699,20.436774 45.9043693,22.571405 C46.8451855,24.7254969 47.3152645,27.0387949 47.3152645,29.4997318 C47.3152645,31.9606442 46.8451744,34.2739967 45.9043571,36.4280329 C44.9719724,38.562688 43.7037296,40.4342577 42.1031868,42.0348005 C40.5026441,43.6353432 38.6310744,44.903586 36.4964314,45.8359655 C34.3424817,46.7768032 32.0291323,47.2468782 29.5681182,47.2468782 C27.1070795,47.2468782 24.7937846,46.7768143 22.6397635,45.8359708 C20.5051083,44.903586 18.6335387,43.6353432 17.0329959,42.0348005 C15.4324271,40.4342317 14.1641877,38.5626456 13.2318845,36.4280451 C12.291024,34.2740433 11.8209182,31.9606852 11.8209182,29.4997318 Z M14.5027364,29.4997318 C14.5027364,31.5960591 14.8985411,33.5437866 15.6895039,35.3546132 C16.4888461,37.1847864 17.5675977,38.7767386 18.9293277,40.1384686 C20.2910422,41.5001831 21.8829967,42.5789486 23.7132111,43.3783583 C25.5240174,44.1692908 27.4716905,44.56506 29.5681182,44.56506 C31.6645167,44.56506 33.6122357,44.1692815 35.4229717,43.3783583 C37.2531861,42.5789486 38.8451405,41.5001831 40.206855,40.1384686 C41.5685695,38.7767541 42.647335,37.1847997 43.4467378,35.354601 C44.237651,33.5437758 44.6334464,31.5960341 44.6334464,29.4997318 C44.6334464,27.4034004 44.2376603,25.4557046 43.44675,23.6448369 C42.6473375,21.8146655 41.5685648,20.2227005 40.206855,18.8609414 C38.8451856,17.499272 37.253246,16.4205412 35.4229595,15.6211 C33.612173,14.8301547 31.6644455,14.43435 29.5681182,14.43435 C27.4717617,14.43435 25.5240801,14.8301454 23.7132111,15.6211053 C21.8829367,16.4205412 20.2909971,17.499272 18.9293449,18.8609242 C17.5676024,20.222716 16.4888436,21.8146788 15.6894917,23.6448247 C14.8985318,25.4556937 14.5027364,27.4033754 14.5027364,29.4997318 Z"/>
    <polygon points="29.572 0 24.728 9.761 34.489 9.761"/>
    <polygon points="50.395 8.604 40.056 12.002 46.997 18.943"/>
    <polygon points="19.088 12.002 8.749 8.604 12.147 18.943"/>
    <polygon points="9.761 24.511 0 29.427 9.761 34.272"/>
    <polygon points="49.239 34.489 58.999 29.572 49.239 24.728"/>
    <polygon points="29.572 58.999 34.416 49.239 24.655 49.239"/>
    <polygon points="40.056 46.997 50.395 50.395 46.997 40.056"/>
    <polygon points="8.749 50.395 19.088 46.997 12.147 40.056"/>
    <path d="M29.5,41.3 C32.75848,41.3 35.4,38.65848 35.4,35.4 C35.4,32.14152 23.6,32.14152 23.6,35.4 C23.6,38.65848 26.24152,41.3 29.5,41.3 Z"/>
    <g transform="translate(19.31 22.527)">
      <path d="M3.01221818,-1.87298182 C3.20530909,-1.87298182 3.35978182,-1.79574545 3.53356364,-1.60265455 L5.98581818,1.35163636 C6.21752727,1.62196364 6.29476364,1.85367273 6.29476364,2.20123636 C6.29476364,2.5488 6.21752727,2.78050909 5.98581818,3.05083636 L3.53356364,6.00512727 C3.35978182,6.19821818 3.186,6.29476364 3.01221818,6.29476364 C2.58741818,6.29476364 1.87298182,5.7348 1.87298182,5.34861818 C1.87298182,5.19414545 1.93090909,5.05898182 2.04676364,4.90450909 L4.17076364,2.20123636 L2.04676364,-0.502036364 C1.93090909,-0.656509091 1.87298182,-0.791672727 1.87298182,-0.926836364 C1.87298182,-1.37094545 2.64534545,-1.87298182 3.01221818,-1.87298182 Z" transform="rotate(-90 4.084 2.21)"/>
      <path d="M15.3485818,-1.87298182 C15.5416727,-1.87298182 15.6961455,-1.79574545 15.8699273,-1.60265455 L18.3221818,1.35163636 C18.5538909,1.62196364 18.6311273,1.85367273 18.6311273,2.20123636 C18.6311273,2.5488 18.5538909,2.78050909 18.3221818,3.05083636 L15.8699273,6.00512727 C15.6961455,6.19821818 15.5223636,6.29476364 15.3485818,6.29476364 C14.9237818,6.29476364 14.2093455,5.7348 14.2093455,5.34861818 C14.2093455,5.19414545 14.2672727,5.05898182 14.3831273,4.90450909 L16.5071273,2.20123636 L14.3831273,-0.502036364 C14.2672727,-0.656509091 14.2093455,-0.791672727 14.2093455,-0.926836364 C14.2093455,-1.37094545 14.9817091,-1.87298182 15.3485818,-1.87298182 Z" transform="rotate(-90 16.42 2.21)"/>
    </g>
  </g>
</svg>
