<svg xmlns="http://www.w3.org/2000/svg" width="59" height="59" viewBox="0 0 59 59">
  <g fill="#4A4A4A" fill-rule="evenodd">
    <path fill-rule="nonzero" d="M11.8209182,29.4997318 C11.8209182,27.038754 12.2910129,24.7254504 13.2318723,22.5713928 C14.1641902,20.4368164 15.4324224,18.565241 17.0329959,16.9646095 C18.6335006,15.3641049 20.5050569,14.0959001 22.6397635,13.1634929 C24.7938367,12.2226266 27.1071403,11.7525318 29.5681182,11.7525318 C32.0290716,11.7525318 34.3424296,12.2226376 36.4964192,13.1634929 C38.6311258,14.0959001 40.5026821,15.3641049 42.103204,16.9646267 C43.7037343,18.565215 44.9719699,20.436774 45.9043693,22.571405 C46.8451855,24.7254969 47.3152645,27.0387949 47.3152645,29.4997318 C47.3152645,31.9606442 46.8451744,34.2739967 45.9043571,36.4280329 C44.9719724,38.562688 43.7037296,40.4342577 42.1031868,42.0348005 C40.5026441,43.6353432 38.6310744,44.903586 36.4964314,45.8359655 C34.3424817,46.7768032 32.0291323,47.2468782 29.5681182,47.2468782 C27.1070795,47.2468782 24.7937846,46.7768143 22.6397635,45.8359708 C20.5051083,44.903586 18.6335387,43.6353432 17.0329959,42.0348005 C15.4324271,40.4342317 14.1641877,38.5626456 13.2318845,36.4280451 C12.291024,34.2740433 11.8209182,31.9606852 11.8209182,29.4997318 Z M14.5027364,29.4997318 C14.5027364,31.5960591 14.8985411,33.5437866 15.6895039,35.3546132 C16.4888461,37.1847864 17.5675977,38.7767386 18.9293277,40.1384686 C20.2910422,41.5001831 21.8829967,42.5789486 23.7132111,43.3783583 C25.5240174,44.1692908 27.4716905,44.56506 29.5681182,44.56506 C31.6645167,44.56506 33.6122357,44.1692815 35.4229717,43.3783583 C37.2531861,42.5789486 38.8451405,41.5001831 40.206855,40.1384686 C41.5685695,38.7767541 42.647335,37.1847997 43.4467378,35.354601 C44.237651,33.5437758 44.6334464,31.5960341 44.6334464,29.4997318 C44.6334464,27.4034004 44.2376603,25.4557046 43.44675,23.6448369 C42.6473375,21.8146655 41.5685648,20.2227005 40.206855,18.8609414 C38.8451856,17.499272 37.253246,16.4205412 35.4229595,15.6211 C33.612173,14.8301547 31.6644455,14.43435 29.5681182,14.43435 C27.4717617,14.43435 25.5240801,14.8301454 23.7132111,15.6211053 C21.8829367,16.4205412 20.2909971,17.499272 18.9293449,18.8609242 C17.5676024,20.222716 16.4888436,21.8146788 15.6894917,23.6448247 C14.8985318,25.4556937 14.5027364,27.4033754 14.5027364,29.4997318 Z"/>
    <polygon points="29.572 0 24.728 9.761 34.489 9.761"/>
    <polygon points="50.395 8.604 40.056 12.002 46.997 18.943"/>
    <polygon points="19.088 12.002 8.749 8.604 12.147 18.943"/>
    <polygon points="9.761 24.511 0 29.427 9.761 34.272"/>
    <polygon points="49.239 34.489 58.999 29.572 49.239 24.728"/>
    <polygon points="29.572 58.999 34.416 49.239 24.655 49.239"/>
    <polygon points="40.056 46.997 50.395 50.395 46.997 40.056"/>
    <polygon points="8.749 50.395 19.088 46.997 12.147 40.056"/>
    <path d="M42.3392045,21.1693073 C41.5011364,21.0855273 40.5652891,21.0156927 39.5316627,20.9598036 C38.4701455,20.9318591 37.3736573,20.9388318 36.2422518,20.9807755 C35.1108464,21.0226655 33.9864673,21.1134718 32.8690609,21.2531409 C31.7236564,21.39281 30.6621391,21.5883682 29.6844018,21.8397618 C29.6564573,21.8397618 29.62154,21.8397618 29.5795964,21.8397618 C29.5377064,21.8397618 29.4888436,21.8537609 29.4329545,21.8817055 C29.3770655,21.8537609 29.3282027,21.8397618 29.2863127,21.8397618 C29.2443691,21.8397618 29.2094518,21.8397618 29.1815609,21.8397618 C28.20377,21.5883682 27.1422527,21.39281 25.9969018,21.2531409 C24.8794418,21.1134718 23.7550627,21.0226655 22.6236573,20.9807755 C21.4922518,20.9388318 20.3958173,20.9318591 19.3342464,20.9598036 C18.30062,21.0156927 17.3647727,21.0855273 16.5267045,21.1693073 C17.2251036,20.10779 18.0352273,19.1579436 18.9571291,18.3198755 C19.8789773,17.4538627 20.8916318,16.7206 21.9950927,16.11998 C23.0985536,15.51936 24.2788218,15.0514364 25.5359509,14.7162091 C26.7930264,14.3809818 28.0920455,14.2133682 29.4329545,14.2133682 C30.7738636,14.2133682 32.0728827,14.3809818 33.3299582,14.7162091 C34.5870873,15.0514364 35.7673555,15.51936 36.8708164,16.11998 C37.9742773,16.7206 38.9869318,17.4538627 39.9088336,18.3198755 C40.8306818,19.1579436 41.6408055,20.10779 42.3392045,21.1693073 Z M43.3029964,22.9292773 C43.8058373,23.9349591 44.1899273,25.0035027 44.45532,26.1348545 C44.7207127,27.26626 44.8534091,28.4325827 44.8534091,29.6338227 C44.8534091,31.7569109 44.4483473,33.7543291 43.6382236,35.6260236 C42.8281,37.4977182 41.7246391,39.1319109 40.3278409,40.5287091 C38.9310427,41.9255073 37.29685,43.0289145 35.4251555,43.8390918 C33.5534609,44.6492155 31.5560964,45.0542773 29.4329545,45.0542773 C27.3098664,45.0542773 25.3124482,44.6492155 23.4407536,43.8390918 C21.5690591,43.0289145 19.9348664,41.9255073 18.5380682,40.5287091 C17.14127,39.1319109 16.0378091,37.4977182 15.2276855,35.6260236 C14.4175618,33.7543291 14.0125,31.7569109 14.0125,29.6338227 C14.0125,28.4325827 14.1451964,27.26626 14.4105891,26.1348545 C14.6759818,25.0035027 15.0600718,23.9349591 15.5629127,22.9292773 C15.5629127,22.9292773 15.5698855,22.93625 15.5838845,22.9501955 C15.59783,22.9641945 15.6048564,22.9711673 15.6048564,22.9711673 C15.9121391,23.0828918 16.1355882,23.23656 16.2753109,23.4321182 C16.41498,23.6276764 16.4848145,23.7254555 16.4848145,23.7254555 C16.4848145,23.7254555 16.54065,23.9000418 16.6524282,24.2492145 C16.7641527,24.5984409 16.9457118,25.2758682 17.1971591,26.28155 C17.4764973,27.3151764 17.8466418,27.9576864 18.3075927,28.20908 C18.7685436,28.4605273 18.9990191,28.5862509 18.9990191,28.5862509 C18.9990191,28.5862509 19.3342464,28.6420864 20.0047009,28.7538645 C20.6751555,28.8655891 21.4573345,28.9214782 22.3512918,28.9214782 C23.27314,28.9214782 24.0344009,28.8865609 24.6350209,28.8166727 C25.2356409,28.7468382 25.8152891,28.5862509 26.3740191,28.3348036 C26.96064,28.0554655 27.3866736,27.6504036 27.6520664,27.1196182 C27.9174591,26.5888327 28.0501555,26.32344 28.0501555,26.32344 C28.0501555,26.32344 28.16188,26.06502 28.3853827,25.5482336 C28.6088318,25.0314473 28.8183891,24.47969 29.0139473,23.8930691 C29.0418382,23.8092355 29.0977273,23.7324282 29.1815609,23.6625936 C29.2653409,23.5927591 29.3491745,23.5438427 29.4329545,23.5158982 C29.5167882,23.5438427 29.6005682,23.5927591 29.6844018,23.6625936 C29.7681818,23.7324282 29.8240709,23.8092355 29.8520155,23.8930691 C30.04752,24.47969 30.2570773,25.0314473 30.4805264,25.5482336 C30.7040291,26.06502 30.8157536,26.32344 30.8157536,26.32344 C30.8157536,26.32344 30.94845,26.5888327 31.2138427,27.1196182 C31.4792355,27.6504036 31.9052691,28.0554655 32.49189,28.3348036 C33.05062,28.5862509 33.6302682,28.7468382 34.2308882,28.8166727 C34.8315082,28.8865609 35.5927691,28.9214782 36.5146173,28.9214782 C37.4085745,28.9214782 38.1907536,28.8655891 38.8612082,28.7538645 C39.5316627,28.6420864 39.86689,28.5862509 39.86689,28.5862509 C39.86689,28.5862509 40.0973655,28.4605273 40.5583164,28.20908 C41.0192673,27.9576864 41.3894118,27.3151764 41.66875,26.28155 C41.9201973,25.2758682 42.1017564,24.5984409 42.2134809,24.2492145 C42.3252591,23.9000418 42.3810945,23.7254555 42.3810945,23.7254555 C42.3810945,23.7254555 42.4509291,23.6276764 42.5906518,23.4321182 C42.7303209,23.23656 42.95377,23.0828918 43.2611064,22.9711673 L43.3029964,22.9292773 Z M29.4329545,46.3951864 C31.7516009,46.3951864 33.9305782,45.96218 35.9698864,45.0961673 C38.0091945,44.20221 39.78311,43.0010236 41.2916327,41.4925009 C42.8001555,39.9839245 44.0013955,38.2100627 44.8952991,36.1707545 C45.7613118,34.1314464 46.1943182,31.9524691 46.1943182,29.6338227 C46.1943182,27.3151227 45.7613118,25.1361991 44.8952991,23.0968909 C44.0013955,21.0575827 42.8001555,19.2836673 41.2916327,17.7751445 C39.78311,16.2666218 38.0091945,15.0653818 35.9698864,14.1714782 C33.9305782,13.3054655 31.7516009,12.8724591 29.4329545,12.8724591 C27.1143082,12.8724591 24.9353309,13.3054655 22.8960227,14.1714782 C20.8567145,15.0653818 19.0827991,16.2666218 17.5742764,17.7751445 C16.0657536,19.2836673 14.8645673,21.0575827 13.97061,23.0968909 C13.1045973,25.1361991 12.6715909,27.3151227 12.6715909,29.6338227 C12.6715909,31.9524691 13.1045973,34.1314464 13.97061,36.1707545 C14.8645673,38.2100627 16.0657536,39.9839245 17.5742764,41.4925009 C19.0827991,43.0010236 20.8567145,44.20221 22.8960227,45.0961673 C24.9353309,45.96218 27.1143082,46.3951864 29.4329545,46.3951864 Z"/>
    <path d="M34.3669636,35.8022727 C35.2916545,35.8022727 36.0423491,36.5529673 36.0423491,37.4776045 C36.0423491,38.4022418 35.2916545,39.1529364 34.3669636,39.1529364 C33.4423264,39.1529364 32.6916318,38.4022418 32.6916318,37.4776045 C32.6916318,36.5529673 33.4423264,35.8022727 34.3669636,35.8022727 Z"/>
  </g>
</svg>
