<svg xmlns="http://www.w3.org/2000/svg" width="433" height="266" viewBox="0 0 433 266">
  <g fill="none" fill-rule="evenodd">
    <polygon fill="#F1FFAB" points="91.09 0 250.543 43.745 258 208.142 103.157 266 0 137.362" opacity=".8"/>
    <g fill="#4A4A4A" transform="translate(177.59 1.97)">
      <g transform="translate(3.946)">
        <path d="M.142214844 30.3377334C-1.32866852 43.8544489 8.81320918 53.2 21.1576787 53.2 35.41355 53.2 45.5529389 43.8544489 47.0213335 30.3377334L50.0352755 2.51536067C50.182115.932607104 49.3732536 0 47.7580196 0L40.4085803 0C38.7933463 0 37.690806.932607104 37.5439665 2.51536067L34.4578491 31.0560601C33.7211631 38.2466313 28.1387749 42.4153607 22.3323944 42.4153607 16.5285026 42.4153607 11.8246624 38.2466313 12.5588597 31.0560601L15.6449771 2.51536067C15.7918166.932607104 14.985444 0 13.3677211 0L6.0207707 0C4.40304788 0 3.30050756.932607104 3.1536681 2.51536067L.142214844 30.3377334zM52.2814932 53.2L60.5016235 53.2C61.8580217 53.2 62.9155524 52.6890549 63.7457396 51.595583L75.0567207 36.654758C75.736197 35.7093862 76.717095 35.7809678 77.3940169 36.7288081L88.4827632 51.595583C89.310396 52.7606366 90.3679267 53.2 91.7243249 53.2L100.32251 53.2C102.509095 53.2 103.26265 51.7412147 101.982884 50.065216L84.6358036 26.9640792C84.1070382 26.2334524 84.1070382 25.4337122 84.6358036 24.7030854L100.549853 3.13231569C101.829619 1.45631699 101.076064 0 98.8894789 0L91.1955595 0C89.8391614 0 88.784185.508476778 88.0280761 1.60194868L78.3008367 15.3752517C77.6213605 16.3971419 76.6404624 16.3230919 75.9635405 15.3752517L65.6309031 1.60194868C64.8007159.436895096 63.7457396 0 62.3867871 0L53.9393132 0C51.7527278 0 50.9991733 1.45631699 52.2814932 3.13231569L68.4969647 24.8487171C69.0231757 25.5793439 69.0998083 26.3075024 68.4969647 27.1097109L50.6977515 50.065216C49.4154316 51.7412147 50.0949079 53.2 52.2814932 53.2z"/>
      </g>
      <g transform="translate(0 66.993)">
        <path d="M2.08309714 53.2L9.25763767 53.2C10.7232974 53.2 11.7475232 52.4713343 12.332795 51.0865733L15.3360334 44.2358323C15.6286693 43.5792433 16.0676233 43.2879745 16.7272941 43.2879745L35.9842271 43.2879745C36.641418 43.2879745 37.0828519 43.6532947 37.2291699 44.2358323L38.9849855 51.1596374C39.3520204 52.6169687 40.2299283 53.2 41.6955879 53.2L49.3834814 53.2C51.285615 53.2 52.1660028 52.0339374 51.6526499 50.2850904L37.8144417 3.56927702C37.0828519 1.0934922 35.6171922 0 33.0553877 0L26.905073 0C24.2688696 0 22.5105739 1.16507521 21.4119492 3.64332842L.324801521 50.2850904C-.481187304 52.0339374.252882519 53.2 2.08309714 53.2zM20.6803593 31.9186177L28.1500157 14.2820449C28.5889697 13.191021 29.3949585 13.191021 29.6875944 14.2820449L34.2259315 31.9186177C34.4466484 32.7948925 33.9332956 33.2317957 33.1273067 33.2317957L21.4863481 33.2317957C20.6803593 33.2317957 20.3877234 32.7208411 20.6803593 31.9186177zM57.0367372 18.1450591C58.7596107 17.9278417 60.4824843 17.5625215 62.1292368 16.9799839 63.7785266 16.4690293 64.82646 17.1972013 64.82646 18.9472825L64.82646 40.8097213C64.82646 42.5598025 63.7785266 43.5792433 61.979532 43.5792433L57.3361467 43.5792433C55.6868569 43.5792433 54.7125072 44.5271011 54.7125072 46.1310543L54.7125072 50.6494233C54.7125072 52.2526359 55.6868569 53.2 57.3361467 53.2L83.7044854 53.2C85.3537753 53.2 86.328125 52.2526359 86.328125 50.6494233L86.328125 46.1310543C86.328125 44.5271011 85.3537753 43.5792433 83.7044854 43.5792433L79.9593288 43.5792433C78.1628715 43.5792433 77.1124008 42.5598025 77.1124008 40.8097213L77.1124008 2.54983621C77.1124008.945389419 76.1380511 0 74.4912986 0L72.2431896 0C70.8958467 0 69.921497.508486215 69.0232684 1.5303954 66.1002193 4.66276923 61.1548871 6.92133664 56.6612066 7.79761143 55.0880378 8.16046324 54.2633929 9.03673803 54.2633929 10.5671334L54.2633929 15.6668059C54.2633929 17.345304 55.2377426 18.3647449 57.0367372 18.1450591zM94.0319677 18.1450591C95.7548412 17.9278417 97.4802522 17.5625215 99.1270046 16.9799839 100.776294 16.4690293 101.824228 17.1972013 101.824228 18.9472825L101.824228 40.8097213C101.824228 42.5598025 100.776294 43.5792433 98.9772999 43.5792433L94.3339146 43.5792433C92.6846247 43.5792433 91.710275 44.5271011 91.710275 46.1310543L91.710275 50.6494233C91.710275 52.2526359 92.6846247 53.2 94.3339146 53.2L120.702253 53.2C122.351543 53.2 123.325893 52.2526359 123.325893 50.6494233L123.325893 46.1310543C123.325893 44.5271011 122.351543 43.5792433 120.702253 43.5792433L116.957097 43.5792433C115.158102 43.5792433 114.110169 42.5598025 114.110169 40.8097213L114.110169 2.54983621C114.110169.945389419 113.135819 0 111.489066 0L109.240957 0C107.891077 0 106.919265.508486215 106.018499 1.5303954 103.097987 4.66276923 98.1526549 6.92133664 93.6589744 7.79761143 92.0858056 8.16046324 91.2611607 9.03673803 91.2611607 10.5671334L91.2611607 15.6668059C91.2611607 17.345304 92.2355104 18.3647449 94.0319677 18.1450591zM121.146097 3.06079081L135.062912 32.7948925C135.281215 33.5230645 135.355637 34.1056021 135.281215 34.8337741L133.671231 50.6494233C133.524868 52.2526359 134.331101 53.2 135.941086 53.2L142.67871 53.2C144.291175 53.2 145.390132 52.2526359 145.536494 50.6494233L147.2209 34.7621911C147.292841 34.0340191 147.513625 33.5230645 147.952711 32.7948925L167.143529 3.06079081C168.314427 1.2391266 167.654556 0 165.677426 0L158.133569 0C156.741887 0 155.64293.654120617 154.911119 1.89324722L143.559364 21.4255357C142.899493 22.5906109 141.874958 22.5906109 141.43339 21.4255357L133.817593 1.89324722C133.304085.654120617 132.425911 0 131.03423 0L123.269589 0C121.292459 0 120.339864 1.2391266 121.146097 3.06079081z"/>
      </g>
    </g>
    <g fill="#4A4A4A" transform="translate(126.286 124.133)">
      <path d="M0 4.88952067C0 7.75372856 2.13658997 9.85185185 5.10949828 9.85185185 6.29874178 9.85185185 7.30200314 9.46871116 8.1010449 8.75733284 8.3239028 8.57471622 8.50968451 8.61131825 8.56539899 8.8850464L8.65839005 9.26799031C8.71410453 9.52341743 8.88124795 9.66943202 9.16002073 9.66943202L9.40151693 9.66943202C9.69892801 9.66943202 9.86607143 9.5053132 9.86607143 9.21328403L9.86607143.638567818C9.86607143.346735438 9.69892801.182616621 9.40151693.182616621L9.10430626.182616621C8.82553348.182616621 8.63975176.328434419 8.58403728.583861546L8.52832281.893994946C8.47260833 1.16772309 8.28682662 1.22242936 8.06376831 1.04000953 7.24628866.365036457 6.20575071 0 5.05378381 0 2.17386656 0 0 2.09812329 0 4.88952067zM1.78366483 4.88952067C1.78366483 2.95571298 3.28875728 1.47785649 5.16521276 1.47785649 6.39153243 1.47785649 7.41343209 2.11642431 8.00805383 3.10153078 8.1010449 3.24754536 8.11948278 3.35695791 8.11948278 3.52127351L8.11948278 6.31247411C8.11948278 6.47678971 8.1010449 6.58620225 8.00805383 6.73221684 7.41343209 7.73562433 6.41017073 8.37419215 5.16521276 8.37419215 3.27011898 8.37419215 1.78366483 6.84162938 1.78366483 4.88952067zM11.228856.549311908L14.9711293 9.4161625C15.084476 9.70021888 15.3113731 9.85185185 15.6326577 9.85185185L16.5965118 9.85185185C16.9177965 9.85185185 17.1446936 9.70021888 17.2580402 9.4161625L21.0003135.549311908C21.1326192.227245105 20.9813545 0 20.6221517 0L19.6962158 0C19.4316044 0 19.2613806.132627764 19.166993.378878079L16.4075328 7.73001199C16.2941862 8.01406837 16.0295748 8.01406837 15.9160243 7.73001199L13.2134412.378878079C13.1188498.132627764 12.9488299 0 12.6842185 0L11.606814 0C11.247815 0 11.0965503.227245105 11.228856.549311908zM22.3630952 4.87121965C22.3630952 7.73562433 24.5709578 9.85185185 27.521237 9.85185185 29.6896923 9.85185185 31.350278 8.66602453 31.898187 7.18816803 32.0140909 6.87803463 31.7991419 6.67751056 31.4682892 6.67751056L30.7243974 6.67751056C30.4525502 6.67751056 30.2755334 6.80522413 30.1575223 7.04235024 29.7676639 7.86333789 28.8109305 8.37419215 27.521237 8.37419215 25.938623 8.37419215 24.7269011 7.4801972 24.2970033 6.05704698 24.1810995 5.63750104 24.4529466 5.36377289 24.922884 5.36377289L31.5652269 5.38207391C31.9550853 5.38207391 32.2290398 5.1449478 32.2290398 4.79821236 32.2480059 2.09812329 30.1385562 0 27.502271 0 24.6088899 0 22.3630952 2.07982227 22.3630952 4.87121965zM24.5519917 3.21114011C25.1188668 2.11642431 26.2315435 1.45955547 27.4811975 1.45955547 28.7519249 1.45955547 29.7486979 2.17113058 30.1975618 3.22924435 30.3724712 3.66709131 30.100624 3.95912047 29.6117206 3.95912047L25.0977934 3.94081945C24.5899239 3.94081945 24.3159694 3.63068606 24.5519917 3.21114011zM42.1609007 3.63068606L42.9510016 3.63068606C43.277438 3.63068606 43.4708048 3.44826622 43.3938739 3.13813282 42.9884274 1.47785649 41.235651 0 38.7489125 0 35.7215787 0 33.5446429 2.11642431 33.5446429 4.87121965 33.5446429 7.68091805 35.7215787 9.85185185 38.8071305 9.85185185 41.0235713 9.85185185 42.9114965 8.62961927 43.375161 6.8599304 43.4520919 6.549797 43.2587251 6.36718038 42.9322887 6.36718038L42.1026827 6.36718038C41.8136722 6.36718038 41.6598104 6.49489394 41.5620874 6.75032107 41.196146 7.75372856 40.1170345 8.37419215 38.7676254 8.37419215 36.9358389 8.37419215 35.3951423 7.02404922 35.3951423 4.92592593 35.3951423 2.90080993 36.8589081 1.47785649 38.7863383 1.47785649 40.2521834 1.47785649 41.3125819 2.31714517 41.6390183 3.22924435 41.7367413 3.50297249 41.8718901 3.63068606 42.1609007 3.63068606z"/>
    </g>
    <path fill="#E5523D" d="M94.7142857,70.0362339 C94.7142857,73.9619021 97.0281152,76.2335294 100.814418,76.2335294 L121.848726,76.2335294 C124.372795,76.2335294 125.845268,77.4745471 125.845268,80.1591976 L125.845268,100.409021 C125.845268,104.334689 128.159098,106.4 131.945202,106.4 L140.569403,106.4 C144.565945,106.4 146.669337,104.12623 146.669337,100.409021 L146.669337,80.1591976 C146.669337,77.6810587 148.352049,76.2335294 150.666672,76.2335294 L171.490344,76.2335294 C175.276646,76.2335294 177.589286,73.9619021 177.589286,70.0362339 L177.589286,61.9783861 C177.589286,58.0527179 175.276646,55.7791424 171.490344,55.7791424 L150.666672,55.7791424 C148.352049,55.7791424 146.669337,54.3335613 146.669337,51.8534742 L146.669337,31.6055987 C146.669337,27.6799306 144.565945,25.6148148 140.569403,25.6148148 L131.945202,25.6148148 C127.948659,25.6148148 125.845268,27.6799306 125.845268,31.6055987 L125.845268,52.0599858 C125.845268,54.5400729 124.372795,55.9856539 121.848726,55.9856539 L100.814418,55.9856539 C97.0281152,55.9856539 94.7142857,58.0527179 94.7142857,61.9783861 L94.7142857,70.0362339 Z"/>
    <g fill="#E5523D" transform="translate(90.768 132.015)">
      <path d="M64.6972809 14.0403065C63.1436911 29.4199596 54.4002784 58.5242082 49.6403732 58.5242082 44.9774184 58.5242082 51.4860061 31.6586867 54.5945764 19.7834398 55.7611595 15.3057865 44.7831204 15.5978204 44.2973752 17.2524798 43.2287359 21.0487207 42.1602952 25.2343402 41.1888049 29.6146488 36.5258501 41.3925511 28.7545237 58.5242082 23.8972708 58.5242082 17.7772792 58.5242082 27.4915863 32.6321328 30.7944546 22.1195115 34.3887701 10.9254779 30.9887527 1.97037037 20.8858495 1.97037037 8.16012122 1.97037037 0 17.7392028 0 24.7476171 0 32.8268221 7.67437607 33.8974138 7.67437607 30.1013719 7.67437607 22.3142007 15.3487521 6.54536826 21.0801476 6.54536826 24.8687611 6.54536826 22.0516379 13.3590933 20.0115083 20.0754736 16.1259444 32.340099 1.55438449 66.9925926 20.6915515 66.9925926 28.8516727 66.9925926 35.3602604 55.8961026 38.3716817 46.6489613 37.4001914 58.0374851 38.9545759 66.9925926 46.4346539 66.9925926 62.7543003 66.9925926 72.4692034 33.7027246 76.8399164 14.0403065 78.2981452 7.61595997 65.4740758 6.74005749 64.6972809 14.0403065zM137.988472 46.1299753C137.500729 45.1640494 136.327346 45.0674568 135.741655 45.9367901 133.590787 49.3173333 129.095153 55.9818272 126.552492 55.9818272 121.079372 55.9818272 132.02761 30.579358 132.907147 28.2613333 134.176478 24.9773827 128.899256 22.1763951 125.381108 24.204642 122.350703 25.846716 119.808042 26.9092346 117.757121 27.1024198 120.591629 20.1481481 121.569115 17.2503704 121.569115 13.097284 121.569115 10.1031111 120.199835 7.88148148 118.342813 7.88148148 114.824665 7.88148148 109.447495 14.5459753 109.447495 21.7900247 109.447495 23.9148642 110.229084 27.2954074 112.282003 29.6136296L112.379952 29.7102222C110.133134 33.2839506 107.200678 37.0508642 103.582582 39.0791111 105.831399 28.2613333 102.800994 21.5968395 97.0340294 21.5968395 93.4179328 21.5968395 90.5834248 23.5286914 88.6284539 26.1364938 87.55302 24.3012346 85.6959975 23.0457284 83.9369234 23.7218765 77.8781126 26.4262716 71.0357143 40.6243951 71.0357143 53.3740247 71.0357143 62.3565432 74.9456562 66.9925926 81.884004 66.9925926 88.6284539 66.9925926 96.742183 60.521284 101.823508 45.5504198 102.117354 44.777679 102.313251 44.0049383 102.509147 43.3289877L102.509147 43.2323951C107.590473 41.590321 111.990157 37.6302222 115.80215 31.8350617 116.48579 32.0282469 117.169431 32.1248395 117.951019 32.1248395 119.22235 32.1248395 120.199835 32.0282469 120.883476 31.7384691 117.659173 39.5620741 113.651282 52.3115062 113.651282 60.0385185 113.651282 64.2881975 115.116511 66.9925926 118.53871 66.9925926 126.552492 66.9925926 135.935553 51.1523951 137.890523 47.5786667 138.184369 47.0957037 138.184369 46.5163457 137.988472 46.1299753zM92.0506525 45.260642C88.8243508 54.2431605 84.3287172 61.1974321 81.4942092 59.8453333 78.9515476 58.5896296 80.1249299 49.3173333 83.1553348 41.7835062 84.1328203 39.2722963 85.2082542 36.857679 86.1857397 35.0224198 86.6734829 38.4995556 88.8243508 41.8800988 92.7342927 43.4255802 92.5383958 44.0049383 92.3424989 44.6810864 92.0506525 45.260642zM93.6138297 39.7552593C90.8772702 38.3063704 89.5079909 35.3121975 89.5079909 31.9316543 89.5079909 29.517037 90.9752186 27.4885926 92.8322411 28.4545185 94.3954183 29.2272593 94.8851605 33.9599012 93.6138297 39.7552593z"/>
      <path d="M179.375926,4.96602076 C180.936355,0.967407607 172.263318,-2.7386095 169.92367,2.82051589 C166.806797,10.2323507 163.687932,19.0098331 160.959672,27.49452 C160.666717,24.178631 158.717675,21.155338 154.723933,21.155338 C147.999938,21.155338 140.399072,27.7871161 136.012732,42.9037806 C131.823686,57.5325855 135.233513,66.9925926 141.957509,66.9925926 C147.123068,66.9925926 150.825849,62.8966469 153.163504,59.0930977 C153.065852,59.4832258 153.065852,59.7758219 153.065852,60.0684179 C153.065852,64.2618956 154.626282,66.9925926 158.036109,66.9925926 C166.027579,66.9925926 175.284532,50.9983394 177.331225,47.3898543 C177.524535,46.9021943 177.622187,46.3172016 177.331225,45.9270736 C176.94062,44.9517534 175.770796,44.8542214 175.186881,45.7320095 C173.042536,49.1454306 168.560537,55.8747407 166.027579,55.8747407 C164.176189,55.8747407 164.46715,52.6563837 165.832276,46.9021943 C169.828012,30.615345 173.919406,18.424641 179.375926,4.96602076 Z M145.855593,60.0684179 C143.808899,58.9955657 144.490466,50.9983394 147.511681,42.1235244 C150.532895,33.2487094 154.723933,26.9093279 156.768633,27.8846481 C158.912978,28.9575002 158.13376,37.0520591 155.112546,45.9270736 C152.091331,54.8018885 147.999938,61.1410706 145.855593,60.0684179 Z"/>
      <path d="M226.919643,18.130932 C226.919643,7.51942252 216.22133,1.97037037 205.805723,1.97037037 C187.532424,1.97037037 177.589286,17.4494206 177.589286,24.4588544 C177.589286,32.5392348 185.069391,33.6099822 185.069391,29.8133881 C185.069391,22.025084 193.118783,6.93526985 205.426199,6.93526985 C211.297201,6.93526985 214.989814,10.1479104 214.989814,16.9626267 C214.989814,27.2820598 207.035303,35.459799 199.272491,38.477722 C201.356,31.565647 203.817096,23.9720605 206.847478,16.3786731 C208.3617,12.4845211 198.987848,8.78508663 196.716514,14.3341388 C188.762004,33.8046998 183.460288,55.1250775 183.460288,60.4794121 C183.460288,66.612816 192.26679,69.1439452 192.929021,64.860358 C193.591251,60.966206 195.200355,53.0807423 197.851213,43.5399803 C212.433837,41.495645 226.919643,32.7339523 226.919643,18.130932 Z"/>
      <path d="M256.385295,46.1299753 C255.912351,45.1640494 254.774572,45.0674568 254.206652,45.9367901 C252.121046,49.3173333 247.761821,55.9818272 245.29631,55.9818272 C239.989259,55.9818272 250.6053,30.579358 251.45815,28.2613333 C252.688967,24.9773827 247.571868,22.1763951 244.160469,24.204642 C241.222014,25.846716 238.758441,26.9092346 236.767813,27.1024198 C239.136409,19.954963 240.464141,16.4778272 240.464141,12.3245432 C240.464141,9.33037037 239.136409,7.88148148 237.335733,7.88148148 C233.924334,7.88148148 228.712259,14.5459753 228.712259,21.7900247 C228.712259,23.9148642 229.470132,27.2954074 231.460761,29.6136296 C229.375156,36.9542716 219.516988,56.8511605 217.433321,56.8511605 C216.580471,56.8511605 217.053415,61.9701728 219.99187,61.9701728 C225.203945,61.9701728 232.218635,41.6869136 235.15709,31.9316543 C235.819986,32.1248395 236.197954,32.1248395 236.957766,32.1248395 C238.188583,32.1248395 239.136409,32.0282469 239.799306,31.7384691 C236.672836,39.5620741 232.786555,52.3115062 232.786555,60.0385185 C232.786555,64.2881975 234.209263,66.9925926 237.525686,66.9925926 C245.29631,66.9925926 254.396605,51.1523951 256.292257,47.5786667 C256.575248,47.0957037 256.575248,46.5163457 256.385295,46.1299753 Z"/>
      <path d="M289.956145,46.1654702 C289.468354,45.2011876 288.204079,44.9119029 287.716287,45.8761854 C285.575979,49.8295466 277.397015,60.2432064 269.220041,60.2432064 C265.423234,60.2432064 263.280934,56.8684147 263.280934,52.1436275 C263.280934,51.179345 263.378493,50.2152596 263.476051,49.2509771 C273.697765,52.722197 284.99063,43.8511921 284.99063,32.7627317 C284.99063,26.0131483 279.636872,21.6740741 274.573799,21.6740741 C263.768726,21.6740741 252.571429,35.8482386 252.571429,52.336484 C252.571429,62.2680026 259.193443,66.9925926 266.396825,66.9925926 C278.370606,66.9925926 286.840254,52.722197 289.858587,47.708125 C290.053703,47.322412 290.151261,46.5511832 289.956145,46.1654702 Z M274.768915,28.3272292 C275.840065,28.3272292 276.61854,29.38794 276.61854,30.6413101 C276.61854,37.1018059 269.512716,45.4904724 264.254526,44.7190463 C266.494383,35.9446668 271.945699,28.3272292 274.768915,28.3272292 Z"/>
      <path d="M315.492643,46.3288986 C315.100621,45.3722693 313.822027,45.0852805 313.329487,46.0419098 C312.052904,48.2419616 308.808171,52.7379237 304.678876,55.9902677 C305.072908,54.4596608 305.368432,52.6422607 305.368432,50.6333392 C305.368432,43.0765546 303.695806,37.6239632 302.811245,32.3628932 C308.709663,24.9972389 313.329487,17.5361172 309.202203,14.5705663 C304.188346,11.1268964 294.751682,19.640506 294.554666,29.7801898 C292.39151,37.1458441 289.247295,43.1722175 286.5916,47.7636469 C285.60853,49.2942538 287.673178,51.3029797 288.754755,49.5812426 C289.836333,47.8593098 291.999488,44.1286512 294.456158,39.3458959 C294.456158,43.1722175 294.456158,47.094202 294.456158,52.6422607 C294.456158,55.607616 292.982558,61.2513376 289.540809,61.2513376 C287.57467,61.2513376 286.298086,59.3382746 285.413525,57.5206789 C284.723969,56.3729194 281.579754,60.1035781 282.2673,61.2513376 C283.642391,63.7383782 286.002562,66.9907222 290.230365,66.9907222 C290.523879,66.9907222 290.819403,66.9907222 291.213435,66.9907222 C303.695806,67.182048 312.543434,52.6422607 315.492643,47.7636469 C315.788167,47.3809952 315.788167,46.7115503 315.492643,46.3288986 Z"/>
      <path d="M341.144428,46.3288986 C340.752407,45.3722693 339.473813,45.0852805 338.983283,46.0419098 C337.70469,48.2419616 334.459957,52.7379237 330.332672,55.9902677 C330.724694,54.4596608 331.020218,52.6422607 331.020218,50.6333392 C331.020218,43.0765546 329.349602,37.6239632 328.465041,32.3628932 C334.361449,24.9972389 338.983283,17.5361172 334.853989,14.5705663 C329.840132,11.1268964 320.403467,19.640506 320.206451,29.7801898 C318.043296,37.1458441 314.899081,43.1722175 312.245396,47.7636469 C311.262326,49.2942538 313.324963,51.3029797 314.406541,49.5812426 C315.488119,47.8593098 317.651274,44.1286512 320.107943,39.3458959 C320.107943,43.1722175 320.107943,47.094202 320.107943,52.6422607 C320.107943,55.607616 318.634344,61.2513376 315.192595,61.2513376 C313.226455,61.2513376 311.949872,59.3382746 311.06531,57.5206789 C310.375754,56.3729194 307.23154,60.1035781 307.919085,61.2513376 C309.296187,63.7383782 311.654348,66.9907222 315.882151,66.9907222 C316.175664,66.9907222 316.471188,66.9907222 316.865221,66.9907222 C329.349602,67.182048 338.195219,52.6422607 341.144428,47.7636469 C341.439952,47.3809952 341.439952,46.7115503 341.144428,46.3288986 Z"/>
    </g>
  </g>
</svg>
