<svg xmlns="http://www.w3.org/2000/svg" width="433" height="266" viewBox="0 0 433 266"><g fill="none" fill-rule="evenodd"><path fill="#F1FFAB" opacity=".8" d="M91.443 0l160.072 43.745L259 208.142 103.557 266 0 137.362z"/><path d="M180.032 122.584h7.19c1.468 0 2.494-.73 3.08-2.12l3.01-6.875c.293-.659.733-.95 1.394-.95H214c.659 0 1.101.366 1.248.95l1.76 6.948c.367 1.462 1.247 2.047 2.715 2.047h7.703c1.906 0 2.789-1.17 2.274-2.925l-13.866-46.877c-.733-2.484-2.201-3.581-4.768-3.581h-6.163c-2.641 0-4.403 1.169-5.504 3.656l-21.13 46.802c-.807 1.755-.072 2.925 1.762 2.925zm18.635-21.355l7.484-17.697c.44-1.095 1.248-1.095 1.541 0l4.548 17.697c.22.88-.294 1.318-1.101 1.318h-11.665c-.807 0-1.1-.513-.807-1.318zm36.429-13.82c1.726-.219 3.453-.585 5.103-1.17 1.652-.512 2.702.218 2.702 1.974v21.938c0 1.756-1.05 2.78-2.852 2.78h-4.653c-1.653 0-2.629.95-2.629 2.56v4.534c0 1.609.976 2.56 2.63 2.56h26.42c1.653 0 2.63-.951 2.63-2.56v-4.534c0-1.61-.977-2.56-2.63-2.56h-3.752c-1.8 0-2.853-1.024-2.853-2.78V71.76c0-1.61-.976-2.558-2.626-2.558h-2.253c-1.35 0-2.326.51-3.226 1.535-2.93 3.144-7.885 5.41-12.387 6.29-1.577.363-2.403 1.243-2.403 2.778v5.118c0 1.684.976 2.707 2.779 2.486zm37.07 0c1.726-.219 3.455-.585 5.105-1.17 1.652-.512 2.702.218 2.702 1.974v21.938c0 1.756-1.05 2.78-2.852 2.78h-4.653c-1.653 0-2.629.95-2.629 2.56v4.534c0 1.609.976 2.56 2.629 2.56h26.421c1.653 0 2.63-.951 2.63-2.56v-4.534c0-1.61-.977-2.56-2.63-2.56h-3.753c-1.802 0-2.852-1.024-2.852-2.78V71.76c0-1.61-.976-2.558-2.626-2.558h-2.253c-1.353 0-2.326.51-3.229 1.535-2.926 3.144-7.882 5.41-12.384 6.29-1.577.363-2.403 1.243-2.403 2.778v5.118c0 1.684.976 2.707 2.776 2.486zm27.168-15.137l13.945 29.837c.218.73.293 1.315.218 2.046l-1.613 15.87c-.147 1.609.661 2.56 2.275 2.56h6.75c1.616 0 2.718-.951 2.864-2.56l1.688-15.942c.072-.73.293-1.244.733-1.974l19.23-29.837c1.173-1.828.512-3.071-1.47-3.071h-7.559c-1.394 0-2.495.656-3.228 1.9l-11.375 19.6c-.661 1.168-1.688 1.168-2.13 0l-7.631-19.6c-.515-1.244-1.395-1.9-2.79-1.9h-7.78c-1.98 0-2.935 1.243-2.127 3.071zM182.042 32.42c-1.474 13.564 8.688 22.942 21.057 22.942 14.285 0 24.445-9.378 25.916-22.942l3.02-27.918c.147-1.588-.663-2.524-2.282-2.524h-7.364c-1.619 0-2.723.936-2.87 2.524l-3.093 28.64c-.738 7.215-6.331 11.398-12.15 11.398-5.815 0-10.528-4.183-9.793-11.399l3.093-28.639c.147-1.588-.661-2.524-2.282-2.524h-7.362c-1.62 0-2.726.936-2.873 2.524l-3.017 27.918zm52.244 22.942h8.236c1.36 0 2.419-.513 3.25-1.61l11.334-14.993c.681-.948 1.664-.877 2.342.075L270.56 53.75c.83 1.169 1.89 1.61 3.248 1.61h8.616c2.19 0 2.946-1.464 1.664-3.146l-17.382-23.18c-.53-.734-.53-1.537 0-2.27L282.65 5.12c1.282-1.682.527-3.143-1.664-3.143h-7.71c-1.358 0-2.416.51-3.173 1.607l-9.747 13.821c-.68 1.026-1.664.951-2.342 0l-10.353-13.82c-.832-1.17-1.89-1.608-3.25-1.608h-8.465c-2.191 0-2.946 1.461-1.661 3.143l16.248 21.791c.527.734.604 1.464 0 2.27l-17.835 23.034c-1.285 1.682-.604 3.146 1.587 3.146z" fill="#FFF"/><path d="M126.539 129.468c0 2.874 2.14 4.98 5.12 4.98 1.191 0 2.197-.385 2.997-1.098.224-.184.41-.147.466.128l.093.384c.056.256.223.403.502.403h.242c.298 0 .466-.165.466-.458v-8.604c0-.293-.168-.458-.466-.458h-.297c-.28 0-.466.147-.522.403l-.056.311c-.055.275-.242.33-.465.147-.82-.678-1.862-1.044-3.016-1.044-2.886 0-5.064 2.105-5.064 4.906zm1.787 0c0-1.94 1.508-3.423 3.389-3.423 1.228 0 2.252.64 2.848 1.63a.686.686 0 0 1 .112.42v2.801a.686.686 0 0 1-.112.421c-.596 1.007-1.601 1.648-2.848 1.648-1.9 0-3.389-1.538-3.389-3.497zm9.464-4.355l3.75 8.898c.114.285.341.437.663.437h.966c.322 0 .55-.152.663-.437l3.75-8.898c.132-.323-.02-.551-.38-.551h-.927c-.265 0-.436.133-.53.38l-2.766 7.377c-.113.285-.378.285-.492 0l-2.708-7.377c-.095-.247-.265-.38-.53-.38h-1.08c-.36 0-.511.228-.379.551zm11.157 4.337c0 2.874 2.212 4.998 5.168 4.998 2.173 0 3.837-1.19 4.386-2.673.116-.311-.1-.512-.43-.512h-.746c-.272 0-.45.128-.568.366-.39.823-1.35 1.336-2.642 1.336-1.585 0-2.8-.897-3.23-2.325-.116-.421.156-.696.627-.696l6.655.019c.391 0 .666-.238.666-.586.019-2.71-2.095-4.815-4.737-4.815-2.899 0-5.15 2.087-5.15 4.888zm2.193-1.666c.568-1.098 1.683-1.757 2.935-1.757 1.274 0 2.272.714 2.722 1.775.175.44-.097.733-.587.733l-4.523-.019c-.509 0-.783-.31-.547-.732zm17.644.421h.792c.327 0 .52-.183.444-.494-.406-1.666-2.163-3.149-4.654-3.149-3.034 0-5.215 2.124-5.215 4.888 0 2.82 2.181 4.998 5.273 4.998 2.22 0 4.112-1.227 4.577-3.002.077-.312-.117-.495-.444-.495h-.83c-.29 0-.445.128-.543.385-.366 1.006-1.448 1.63-2.8 1.63-1.835 0-3.379-1.356-3.379-3.461 0-2.032 1.467-3.46 3.398-3.46 1.469 0 2.531.842 2.858 1.757.098.275.234.403.523.403z" fill="#000"/><path fill="#FFF" d="M94.904 70.278c0 3.94 2.319 6.219 6.112 6.219h21.077c2.53 0 4.004 1.245 4.004 3.939v20.32c0 3.939 2.319 6.011 6.113 6.011h8.641c4.005 0 6.112-2.281 6.112-6.012v-20.32c0-2.486 1.686-3.938 4.006-3.938h20.865c3.794 0 6.111-2.28 6.111-6.22v-8.085c0-3.939-2.317-6.22-6.111-6.22h-20.865c-2.32 0-4.006-1.451-4.006-3.94V31.715c0-3.94-2.107-6.012-6.112-6.012h-8.641c-4.005 0-6.113 2.072-6.113 6.012V52.24c0 2.488-1.475 3.939-4.004 3.939h-21.077c-3.793 0-6.112 2.074-6.112 6.013v8.086z"/><g fill="#000"><path d="M155.777 146.559c-1.557 15.432-10.318 44.637-15.087 44.637-4.672 0 1.85-26.958 4.964-38.874 1.169-4.493-9.831-4.2-10.318-2.54-1.07 3.81-2.141 8.01-3.115 12.405-4.672 11.818-12.459 29.01-17.326 29.01-6.132 0 3.602-25.982 6.911-36.531 3.602-11.233.195-20.219-9.928-20.219-12.752 0-20.928 15.823-20.928 22.856 0 8.107 7.69 9.181 7.69 5.372 0-7.814 7.69-23.637 13.432-23.637 3.797 0 .974 6.837-1.07 13.577-3.894 12.307-18.495 47.079.681 47.079 8.176 0 14.698-11.135 17.716-20.414-.974 11.428.584 20.414 8.079 20.414 16.352 0 26.086-33.405 30.466-53.135 1.461-6.447-11.389-7.326-12.167 0zm73.438 32.2c-.489-.97-1.664-1.066-2.251-.194-2.155 3.392-6.66 10.08-9.208 10.08-5.484 0 5.486-25.49 6.368-27.816 1.271-3.295-4.016-6.106-7.542-4.07-3.036 1.647-5.584 2.713-7.639 2.907 2.84-6.978 3.82-9.886 3.82-14.054 0-3.004-1.372-5.233-3.233-5.233-3.525 0-8.913 6.687-8.913 13.956 0 2.132.783 5.525 2.84 7.85l.098.098c-2.251 3.586-5.19 7.366-8.815 9.4 2.254-10.854-.783-17.542-6.561-17.542-3.624 0-6.464 1.939-8.423 4.556-1.078-1.842-2.938-3.102-4.7-2.423-6.072 2.713-12.928 16.96-12.928 29.754 0 9.014 3.918 13.666 10.87 13.666 6.758 0 14.888-6.494 19.98-21.516.294-.776.49-1.551.687-2.23v-.096c5.091-1.648 9.5-5.622 13.32-11.437a7.7 7.7 0 0 0 2.152.29c1.274 0 2.254-.096 2.939-.387-3.231 7.85-7.247 20.644-7.247 28.398 0 4.264 1.468 6.978 4.897 6.978 8.03 0 17.432-15.895 19.39-19.481.295-.485.295-1.066.099-1.454zm-46.03-.872c-3.233 9.013-7.737 15.992-10.577 14.635-2.548-1.26-1.372-10.565 1.664-18.124.98-2.52 2.057-4.943 3.036-6.785.49 3.49 2.644 6.882 6.562 8.432-.196.582-.392 1.26-.685 1.842zm1.566-5.525c-2.742-1.453-4.114-4.458-4.114-7.85 0-2.423 1.47-4.459 3.331-3.49 1.567.776 2.057 5.525.783 11.34z"/><path d="M270.685 137.453c1.564-4.012-7.126-7.731-9.47-2.153-3.124 7.438-6.249 16.245-8.983 24.76-.293-3.328-2.246-6.362-6.248-6.362-6.737 0-14.354 6.655-18.749 21.824-4.197 14.68-.78 24.172 5.957 24.172 5.176 0 8.886-4.11 11.228-7.927-.097.391-.097.685-.097.979 0 4.208 1.563 6.948 4.98 6.948 8.007 0 17.283-16.05 19.334-19.67.193-.49.291-1.077 0-1.468-.392-.98-1.564-1.077-2.149-.196-2.149 3.425-6.64 10.178-9.178 10.178-1.855 0-1.563-3.23-.195-9.004 4.003-16.343 8.103-28.576 13.57-42.08zm-33.587 55.293c-2.05-1.077-1.368-9.102 1.66-18.007 3.027-8.906 7.226-15.267 9.275-14.288 2.148 1.076 1.368 9.199-1.66 18.105-3.027 8.905-7.126 15.266-9.275 14.19z"/><path d="M318.324 150.663c0-10.648-10.72-16.216-21.156-16.216-18.31 0-28.273 15.533-28.273 22.566 0 8.109 7.495 9.183 7.495 5.373 0-7.815 8.066-22.957 20.398-22.957 5.883 0 9.583 3.224 9.583 10.062 0 10.355-7.97 18.561-15.75 21.59 2.089-6.936 4.555-14.556 7.591-22.176 1.517-3.907-7.875-7.62-10.151-2.051-7.97 19.537-13.283 40.931-13.283 46.304 0 6.155 8.824 8.695 9.488 4.396.663-3.907 2.276-11.82 4.932-21.394 14.612-2.051 29.126-10.843 29.126-25.497z"/><path d="M347.85 178.76c-.475-.97-1.615-1.067-2.184-.195-2.09 3.392-6.458 10.08-8.928 10.08-5.318 0 5.32-25.49 6.174-27.816 1.233-3.295-3.894-6.106-7.312-4.07-2.945 1.647-5.413 2.713-7.408 2.907 2.374-7.172 3.704-10.661 3.704-14.829 0-3.004-1.33-4.458-3.135-4.458-3.418 0-8.64 6.687-8.64 13.956 0 2.132.759 5.525 2.754 7.85-2.09 7.367-11.968 27.332-14.056 27.332-.854 0-.38 5.137 2.564 5.137 5.222 0 12.251-20.353 15.195-30.142.665.194 1.043.194 1.805.194 1.233 0 2.183-.097 2.847-.388-3.133 7.85-7.027 20.644-7.027 28.398 0 4.264 1.426 6.978 4.749 6.978 7.786 0 16.904-15.895 18.804-19.481.283-.485.283-1.066.093-1.454z"/><path d="M381.487 178.795c-.489-.968-1.755-1.258-2.244-.29-2.145 3.966-10.34 14.416-18.533 14.416-3.805 0-5.951-3.386-5.951-8.127 0-.968.097-1.935.195-2.903 10.242 3.483 21.558-5.419 21.558-16.545 0-6.773-5.365-11.127-10.438-11.127-10.827 0-22.046 14.223-22.046 30.768 0 9.966 6.635 14.707 13.853 14.707 11.998 0 20.484-14.32 23.509-19.351.195-.387.293-1.161.097-1.548zm-15.217-17.9c1.073 0 1.853 1.064 1.853 2.322 0 6.483-7.12 14.9-12.389 14.126 2.244-8.804 7.707-16.448 10.536-16.448z"/><path d="M407.075 178.959c-.393-.96-1.674-1.248-2.168-.288-1.279 2.207-4.53 6.719-8.667 9.982.394-1.535.69-3.36.69-5.375 0-7.583-1.676-13.054-2.562-18.333 5.91-7.392 10.54-14.878 6.404-17.854-5.024-3.456-14.48 5.087-14.677 15.262-2.167 7.391-5.318 13.438-7.979 18.045-.985 1.536 1.084 3.552 2.167 1.824 1.084-1.728 3.252-5.471 5.713-10.27v13.342c0 2.975-1.476 8.639-4.925 8.639-1.97 0-3.25-1.92-4.135-3.744-.691-1.152-3.842 2.592-3.153 3.744 1.378 2.495 3.743 5.759 7.979 5.759h.985c12.507.192 21.373-14.398 24.328-19.294.296-.384.296-1.055 0-1.44z"/><path d="M432.778 178.959c-.393-.96-1.674-1.248-2.165-.288-1.281 2.207-4.533 6.719-8.668 9.982.393-1.535.689-3.36.689-5.375 0-7.583-1.674-13.054-2.56-18.333 5.908-7.392 10.539-14.878 6.401-17.854-5.024-3.456-14.48 5.087-14.677 15.262-2.167 7.391-5.318 13.438-7.977 18.045-.985 1.536 1.082 3.552 2.166 1.824 1.083-1.728 3.25-5.471 5.712-10.27v13.342c0 2.975-1.476 8.639-4.925 8.639-1.97 0-3.249-1.92-4.135-3.744-.691-1.152-3.842 2.592-3.153 3.744 1.38 2.495 3.743 5.759 7.98 5.759h.984c12.51.192 21.373-14.398 24.328-19.294.296-.384.296-1.055 0-1.44z"/></g></g></svg>