<svg width="500" height="600" viewBox="0 0 500 600" xmlns="http://www.w3.org/2000/svg"><title>sprite</title><g fill="none" fill-rule="evenodd"><g fill="#E5523D"><path d="M60 540h30v30H60v-30zm27.61 8.367c-.906.402-1.879.674-2.9.795a5.064 5.064 0 0 0 2.22-2.793c-.975.579-2.056 1-3.206 1.225a5.049 5.049 0 0 0-8.604 4.605 14.333 14.333 0 0 1-10.407-5.275 5.022 5.022 0 0 0-.683 2.538c0 1.752.891 3.297 2.246 4.203a5.027 5.027 0 0 1-2.287-.632v.064a5.052 5.052 0 0 0 4.05 4.95 5.054 5.054 0 0 1-2.28.087 5.053 5.053 0 0 0 4.716 3.507 10.13 10.13 0 0 1-6.27 2.161c-.408 0-.81-.024-1.205-.07A14.292 14.292 0 0 0 70.74 566c9.286 0 14.365-7.694 14.365-14.366 0-.219-.005-.436-.014-.653a10.245 10.245 0 0 0 2.519-2.614zM20 540h30v30H20v-30zm24.274 4h-3.805c-4.082 0-4.29 3.528-4.29 4.981v2.18H34v3.874h2.318V566h4.462v-11.035h3.078l.381-3.84h-3.407v-2.127c0-1.366 1.124-1.124 1.124-1.124h2.318V544zM100 540h30v30h-30v-30zm24.688 19.744c-.053 1.15-.247 1.774-.411 2.19-.217.55-.476.943-.895 1.356a3.711 3.711 0 0 1-1.374.882c-.422.161-1.055.353-2.22.406-1.261.057-1.64.068-4.832.068-3.193 0-3.57-.011-4.831-.068-1.166-.053-1.799-.245-2.22-.406a3.708 3.708 0 0 1-1.375-.882 3.65 3.65 0 0 1-.894-1.356c-.164-.416-.359-1.04-.412-2.19-.058-1.243-.07-1.616-.07-4.765 0-3.149.012-3.522.07-4.765.053-1.15.248-1.774.412-2.19a3.65 3.65 0 0 1 .894-1.356 3.708 3.708 0 0 1 1.375-.882c.421-.161 1.054-.354 2.22-.406 1.26-.057 1.639-.069 4.831-.069 3.193 0 3.57.012 4.832.069 1.165.052 1.798.245 2.22.406.558.214.956.47 1.374.882.419.413.678.805.895 1.356.164.416.358 1.04.411 2.19.058 1.243.07 1.616.07 4.765 0 3.149-.012 3.522-.07 4.765m2.153-9.627c-.059-1.255-.26-2.112-.556-2.863a5.774 5.774 0 0 0-1.38-2.088 5.869 5.869 0 0 0-2.117-1.36c-.76-.292-1.63-.491-2.902-.549-1.276-.057-1.683-.07-4.93-.07s-3.654.013-4.93.07c-1.272.058-2.141.257-2.902.549a5.869 5.869 0 0 0-2.117 1.36 5.77 5.77 0 0 0-1.38 2.088c-.295.75-.497 1.608-.555 2.863-.058 1.258-.072 1.66-.072 4.862 0 3.203.014 3.604.072 4.862.058 1.255.26 2.112.556 2.862a5.769 5.769 0 0 0 1.379 2.09 5.867 5.867 0 0 0 2.117 1.36c.761.29 1.63.49 2.903.547 1.275.058 1.682.071 4.93.071 3.246 0 3.653-.013 4.929-.07 1.272-.058 2.141-.257 2.902-.549a5.867 5.867 0 0 0 2.118-1.36 5.772 5.772 0 0 0 1.379-2.089c.295-.75.497-1.607.556-2.862.058-1.258.071-1.66.071-4.862 0-3.203-.013-3.604-.071-4.862m-11.885 8.793c-2.2 0-3.985-1.76-3.985-3.931 0-2.171 1.784-3.931 3.985-3.931 2.201 0 3.986 1.76 3.986 3.93 0 2.172-1.785 3.932-3.986 3.932m0-9.987c-3.39 0-6.14 2.711-6.14 6.056 0 3.344 2.75 6.055 6.14 6.055 3.391 0 6.14-2.71 6.14-6.055 0-3.345-2.749-6.056-6.14-6.056m6.382 1.176a1.425 1.425 0 0 1-1.434-1.415c0-.781.642-1.415 1.434-1.415.793 0 1.435.634 1.435 1.415 0 .782-.642 1.415-1.435 1.415M140 540h30v30h-30v-30zm6.024 23.776h4.387v-12.25h-4.387v12.25zm2.182-13.52h.024c1.357 0 2.23-.945 2.23-2.115-.024-1.245-.873-2.141-2.23-2.141-1.358 0-2.23.896-2.23 2.141 0 1.17.848 2.116 2.206 2.116zm4.896 5.454v8.066h4.388v-6.946c0-.324.024-.673.121-.897.194-.472.582-1.07 1.43-1.07 1.067 0 1.527.822 1.527 2.24v6.673h4.388v-7.22c0-3.361-1.527-5.303-4.315-5.303a4.309 4.309 0 0 0-3.587 1.842h-.073l-.194-1.568h-3.781c.048 1.145.096 2.54.096 4.183zM180 540h30v30h-30v-30zm15.998 4c-6.647 0-9.998 4.48-9.998 8.217 0 2.262.91 4.274 2.865 5.025.32.123.607.004.7-.33.065-.23.218-.813.286-1.055.094-.33.057-.446-.201-.734-.564-.624-.924-1.433-.924-2.579 0-3.324 2.645-6.3 6.888-6.3 3.756 0 5.82 2.159 5.82 5.041 0 3.793-1.785 6.993-4.435 6.993-1.463 0-2.559-1.138-2.208-2.533.421-1.667 1.235-3.465 1.235-4.667 0-1.077-.614-1.975-1.886-1.975-1.496 0-2.698 1.455-2.698 3.405 0 1.24.446 2.08.446 2.08s-1.53 6.1-1.8 7.168c-.534 2.127-.08 4.735-.041 4.998.022.156.236.193.332.075.138-.17 1.92-2.237 2.526-4.304.171-.585.984-3.615.984-3.615.486.872 1.906 1.64 3.417 1.64 4.497 0 7.548-3.855 7.548-9.015 0-3.902-3.514-7.535-8.856-7.535z"/></g><g fill="#4A4A4A"><path d="M31.82 49.5c0-2.461.471-4.775 1.412-6.929a18.095 18.095 0 0 1 3.801-5.606c1.6-1.6 3.472-2.87 5.607-3.802 2.154-.94 4.467-1.41 6.928-1.41 2.461 0 4.774.47 6.928 1.41 2.135.933 4.007 2.201 5.607 3.802 1.6 1.6 2.869 3.472 3.801 5.606.941 2.154 1.411 4.468 1.411 6.929 0 2.46-.47 4.774-1.41 6.928a18.095 18.095 0 0 1-3.802 5.607 18.095 18.095 0 0 1-5.607 3.801c-2.154.94-4.467 1.41-6.928 1.41-2.46 0-4.774-.47-6.928-1.41a18.095 18.095 0 0 1-5.607-3.801 18.094 18.094 0 0 1-3.801-5.607c-.941-2.154-1.411-4.467-1.411-6.928zm2.683 0c0 2.096.396 4.044 1.187 5.855.799 1.83 1.878 3.422 3.24 4.783a15.414 15.414 0 0 0 4.783 3.24c1.811.791 3.759 1.187 5.855 1.187 2.097 0 4.044-.396 5.855-1.187 1.83-.8 3.422-1.878 4.784-3.24a15.414 15.414 0 0 0 3.24-4.783c.79-1.811 1.186-3.759 1.186-5.855 0-2.097-.395-4.044-1.186-5.855a15.415 15.415 0 0 0-3.24-4.784 15.414 15.414 0 0 0-4.784-3.24c-1.81-.79-3.759-1.187-5.855-1.187-2.096 0-4.044.396-5.855 1.187-1.83.8-3.422 1.878-4.784 3.24a15.414 15.414 0 0 0-3.24 4.784c-.79 1.81-1.186 3.758-1.186 5.855z" fill-rule="nonzero"/><path d="M49.572 20l-4.844 9.761h9.76zM70.395 28.604l-10.339 3.398 6.941 6.941zM39.088 32.002l-10.34-3.398 3.399 10.34zM29.761 44.51L20 49.428l9.761 4.845zM69.239 54.489l9.76-4.917-9.76-4.844zM49.572 79l4.844-9.761h-9.76zM60.056 66.997l10.34 3.398-3.399-10.339zM28.749 70.395l10.34-3.398-6.942-6.941zM62.34 41.17a62.206 62.206 0 0 0-2.808-.21 51.941 51.941 0 0 0-3.29.02 38.74 38.74 0 0 0-3.373.273c-1.145.14-2.207.335-3.185.587h-.104a.338.338 0 0 0-.147.042.338.338 0 0 0-.147-.042h-.104a24.925 24.925 0 0 0-3.185-.587 38.743 38.743 0 0 0-3.373-.272 51.941 51.941 0 0 0-3.29-.021c-1.033.056-1.97.126-2.807.21a14.899 14.899 0 0 1 2.43-2.85c.922-.866 1.935-1.6 3.038-2.2a15.998 15.998 0 0 1 3.541-1.404 15.06 15.06 0 0 1 3.897-.503c1.34 0 2.64.168 3.897.503 1.257.335 2.437.803 3.54 1.404a14.65 14.65 0 0 1 3.039 2.2 14.9 14.9 0 0 1 2.43 2.85zm.963 1.76a14.592 14.592 0 0 1 1.152 3.205 15.27 15.27 0 0 1 .398 3.499c0 2.123-.405 4.12-1.215 5.992a15.653 15.653 0 0 1-3.31 4.903 15.654 15.654 0 0 1-4.903 3.31c-1.872.81-3.869 1.215-5.992 1.215-2.123 0-4.12-.405-5.992-1.215a15.654 15.654 0 0 1-4.903-3.31 15.653 15.653 0 0 1-3.31-4.903c-.81-1.872-1.216-3.87-1.216-5.992 0-1.201.133-2.368.399-3.5.265-1.13.65-2.199 1.152-3.205a17.475 17.475 0 0 0 .042.042c.307.112.53.266.67.461l.21.293.167.524c.112.35.294 1.027.545 2.033.28 1.033.65 1.676 1.11 1.927l.692.377 1.006.168c.67.112 1.452.167 2.346.167.922 0 1.683-.034 2.284-.104.6-.07 1.18-.23 1.739-.482.587-.28 1.013-.685 1.278-1.215l.398-.797.335-.775a20.54 20.54 0 0 0 .629-1.655.515.515 0 0 1 .168-.23.785.785 0 0 1 .251-.147.785.785 0 0 1 .251.147c.084.07.14.146.168.23.196.587.405 1.138.629 1.655l.335.775.398.797c.265.53.691.935 1.278 1.215a5.864 5.864 0 0 0 1.739.482c.6.07 1.362.104 2.284.104.894 0 1.676-.055 2.346-.167l1.006-.168.691-.377c.461-.251.831-.894 1.11-1.927.252-1.006.434-1.684.545-2.033l.168-.524.21-.293c.14-.195.363-.35.67-.46l.042-.043zm-13.87 23.465c2.319 0 4.498-.433 6.537-1.299 2.04-.894 3.813-2.095 5.322-3.603 1.508-1.51 2.71-3.283 3.603-5.322.866-2.04 1.3-4.219 1.3-6.537 0-2.319-.434-4.498-1.3-6.537-.894-2.04-2.095-3.813-3.603-5.322-1.509-1.508-3.283-2.71-5.322-3.604-2.04-.866-4.218-1.299-6.537-1.299s-4.498.433-6.537 1.3c-2.04.893-3.813 2.095-5.322 3.603-1.508 1.509-2.71 3.283-3.603 5.322-.866 2.04-1.3 4.218-1.3 6.537 0 2.318.434 4.497 1.3 6.537.894 2.04 2.095 3.813 3.603 5.322 1.509 1.508 3.283 2.71 5.322 3.603 2.04.866 4.218 1.3 6.537 1.3z"/><path d="M54.367 55.802a1.676 1.676 0 1 1-.002 3.353 1.676 1.676 0 0 1 .002-3.353z"/></g><g fill="#4A4A4A"><path d="M120.82 49.5c0-2.461.471-4.775 1.412-6.929a18.095 18.095 0 0 1 3.801-5.606c1.6-1.6 3.472-2.87 5.607-3.802 2.154-.94 4.467-1.41 6.928-1.41 2.461 0 4.774.47 6.928 1.41 2.135.933 4.007 2.201 5.607 3.802 1.6 1.6 2.869 3.472 3.801 5.606.941 2.154 1.411 4.468 1.411 6.929 0 2.46-.47 4.774-1.41 6.928a18.095 18.095 0 0 1-3.802 5.607 18.095 18.095 0 0 1-5.607 3.801c-2.154.94-4.467 1.41-6.928 1.41-2.46 0-4.774-.47-6.928-1.41a18.095 18.095 0 0 1-5.607-3.801 18.094 18.094 0 0 1-3.801-5.607c-.941-2.154-1.411-4.467-1.411-6.928zm2.683 0c0 2.096.396 4.044 1.187 5.855.799 1.83 1.878 3.422 3.24 4.783a15.414 15.414 0 0 0 4.783 3.24c1.811.791 3.759 1.187 5.855 1.187 2.097 0 4.044-.396 5.855-1.187 1.83-.8 3.422-1.878 4.784-3.24a15.414 15.414 0 0 0 3.24-4.783c.79-1.811 1.186-3.759 1.186-5.855 0-2.097-.395-4.044-1.186-5.855a15.415 15.415 0 0 0-3.24-4.784 15.414 15.414 0 0 0-4.784-3.24c-1.81-.79-3.759-1.187-5.855-1.187-2.096 0-4.044.396-5.855 1.187-1.83.8-3.422 1.878-4.784 3.24a15.414 15.414 0 0 0-3.24 4.784c-.79 1.81-1.186 3.758-1.186 5.855z" fill-rule="nonzero"/><path d="M138.572 20l-4.844 9.761h9.76zM159.395 28.604l-10.339 3.398 6.941 6.941zM128.088 32.002l-10.34-3.398 3.399 10.34zM118.761 44.51L109 49.428l9.761 4.845zM158.239 54.489l9.76-4.917-9.76-4.844zM138.572 79l4.844-9.761h-9.76zM149.056 66.997l10.34 3.398-3.399-10.339zM117.749 70.395l10.34-3.398-6.942-6.941zM138.5 61.3a5.9 5.9 0 0 0 5.9-5.9c0-3.258-11.8-3.258-11.8 0a5.9 5.9 0 0 0 5.9 5.9zM128.31 45.81c0-.193.076-.348.27-.522l2.954-2.452c.27-.231.502-.309.85-.309.347 0 .579.078.849.31l2.954 2.451c.193.174.29.348.29.522 0 .425-.56 1.14-.946 1.14-.155 0-.29-.059-.444-.175l-2.704-2.124-2.703 2.124c-.154.116-.29.174-.425.174-.444 0-.946-.772-.946-1.14zM140.645 45.81c0-.193.078-.348.27-.522l2.955-2.452c.27-.231.502-.309.85-.309.347 0 .579.078.85.31l2.954 2.451c.193.174.29.348.29.522 0 .425-.56 1.14-.947 1.14-.154 0-.29-.059-.444-.175l-2.703-2.124-2.704 2.124c-.154.116-.29.174-.424.174-.445 0-.947-.772-.947-1.14z"/></g><circle fill="#FFF" cx="49" cy="173" r="26"/><path d="M66 114.375c0-1.185-.594-2.21-1.781-3.076C63.03 110.433 61.625 110 60 110H36c-1.625 0-3.031.433-4.219 1.299-1.187.866-1.781 1.891-1.781 3.076V120h36v-5.625zm-3.25 19.942V123h-28.5v11.317c-4.849 0-8.436 1.87-10.762 5.607C21.163 143.66 20 148.17 20 153.454V230h57v-76.546c0-5.283-1.187-9.793-3.563-13.53-2.375-3.738-5.937-5.607-10.687-5.607zM37.023 165.97a15.27 15.27 0 0 1-1.089-.703c-2.434-1.724-4.623-4.531-4.204-7.466.219-1.534 2.45-2.345 3.56-1.14.283.308.472.7.536 1.117.052.337.027.685.108 1.02.484 2.025 2.463 3.246 4.17 4.05 6.113 2.88 14.26 2.992 19.321-1.812.105-.1.207-.203.306-.309.663-.713 1.193-1.625 1.198-2.635 0 0 .254-2.176 2.237-2.09 1.86.224 2.368 2.839 1.136 5.374-.932 1.917-2.405 3.448-4.223 4.614 3.871.92 7.554 3.345 8.69 6.257.44 1.127.267 2.448-.667 3.238-2.22 1.878-6.085.764-9.087-.68l-.154-.075c1.313 2.929 1.789 6.372 1.06 9.739-1.316 6.088-6.86 11.553-13.363 10.368-6.863-1.25-11.355-9.607-9.694-17.288.175-.809.421-1.605.731-2.376-3.586 2.03-9.402 3.37-9.59-.772-.132-2.87 2.822-5.263 5.559-6.861 1.118-.653 2.26-1.208 3.459-1.57zM53.106 171c-1.34-1.18-3.001-1.945-4.933-2a9.697 9.697 0 0 0-.229 0c-5.792.069-10.016 7.511-8.703 14.258 1.056 5.43 6.05 10.552 11.661 8.119 4.993-2.165 7.32-9.403 5.461-15.209-.457-1.428-1.168-2.804-2.104-3.962A9.805 9.805 0 0 1 53.106 171zm-14.444-3.998c-3.384.158-7.364 2.673-8.548 5.949a2.298 2.298 0 0 0-.083.28c-.013.055-.022.11-.028.167-.174 1.74 7.065-.422 9.495-4.844.348-.633 1.237-1.578-.745-1.555l-.09.003zm18.98.008c-.829-.011-2.304-.18-1.31 1.32 2.167 3.274 8.16 5.764 10.48 4.179 1.19-.812-3.527-4.38-7.318-5.252-.62-.142-1.119-.231-1.852-.247zm-15.642.02l.041-.022-.015-.004L42 167v.03z" fill="#4A4A4A"/><circle fill="#FFF" cx="49" cy="317" r="26"/><path d="M66 254.375c0-1.185-.594-2.21-1.781-3.076C63.03 250.433 61.625 250 60 250H36c-1.625 0-3.031.433-4.219 1.299-1.187.866-1.781 1.891-1.781 3.076V260h36v-5.625zm-3.25 19.942V263h-28.5v11.317c-4.849 0-8.436 1.87-10.762 5.607C21.163 283.66 20 288.17 20 293.454V370h57v-76.546c0-5.283-1.187-9.793-3.563-13.53-2.375-3.738-5.937-5.607-10.687-5.607zM37.023 305.97a15.27 15.27 0 0 1-1.089-.703c-2.434-1.724-4.623-4.531-4.204-7.466.219-1.534 2.45-2.345 3.56-1.14.283.308.472.7.536 1.117.052.337.027.685.108 1.02.484 2.025 2.463 3.246 4.17 4.05 6.113 2.88 14.26 2.992 19.321-1.812.105-.1.207-.203.306-.309.663-.713 1.193-1.625 1.198-2.635 0 0 .254-2.176 2.237-2.09 1.86.224 2.368 2.839 1.136 5.374-.932 1.917-2.405 3.448-4.223 4.614 3.871.92 7.554 3.345 8.69 6.257.44 1.127.267 2.448-.667 3.238-2.22 1.878-6.085.764-9.087-.68l-.154-.075c1.313 2.929 1.789 6.372 1.06 9.739-1.316 6.088-6.86 11.553-13.363 10.368-6.863-1.25-11.355-9.607-9.694-17.288.175-.809.421-1.605.731-2.376-3.586 2.03-9.402 3.37-9.59-.772-.132-2.87 2.822-5.263 5.559-6.861 1.118-.653 2.26-1.208 3.459-1.57zM53.106 311c-1.34-1.18-3.001-1.945-4.933-2a9.697 9.697 0 0 0-.229 0c-5.792.069-10.016 7.511-8.703 14.258 1.056 5.43 6.05 10.552 11.661 8.119 4.993-2.165 7.32-9.403 5.461-15.209-.457-1.428-1.168-2.804-2.104-3.962A9.805 9.805 0 0 1 53.106 311zm-14.444-3.998c-3.384.158-7.364 2.673-8.548 5.949a2.298 2.298 0 0 0-.083.28c-.013.055-.022.11-.028.167-.174 1.74 7.065-.422 9.495-4.844.348-.633 1.237-1.578-.745-1.555l-.09.003zm18.98.008c-.829-.011-2.304-.18-1.31 1.32 2.167 3.274 8.16 5.764 10.48 4.179 1.19-.812-3.527-4.38-7.318-5.252-.62-.142-1.119-.231-1.852-.247zm-15.642.02l.041-.022-.015-.004L42 307v.03z" fill="#E5523D"/><circle fill="#FFF" cx="153" cy="201" r="26"/><circle fill="#FFF" cx="193" cy="180" r="9"/><path fill="#FFF" d="M136 160h18v14h-18z"/><path d="M201.931 166.125l-45.517.095v-9.03l-24.276-.19v9.125h-6.069c-1.644 0-3.066.602-4.267 1.806-1.201 1.204-1.802 2.63-1.802 4.277v51.709c0 1.647.6 3.073 1.802 4.277 1.2 1.204 2.623 1.806 4.267 1.806h75.862c1.644 0 3.066-.602 4.267-1.806 1.201-1.204 1.802-2.63 1.802-4.277v-51.709c0-1.647-.6-3.073-1.802-4.277-1.2-1.204-2.623-1.806-4.267-1.806zm-63.724-3.042h12.138v9.125h-12.138v-9.125zm15.172 57.697c-2.908 0-5.658-.57-8.25-1.711-2.592-1.14-4.852-2.661-6.78-4.562-1.928-1.902-3.445-4.151-4.552-6.75-1.106-2.597-1.66-5.354-1.66-8.269 0-2.978.554-5.75 1.66-8.317a21.52 21.52 0 0 1 4.552-6.748c1.928-1.933 4.188-3.454 6.78-4.563 2.592-1.109 5.342-1.663 8.25-1.663 2.908 0 5.658.554 8.25 1.663 2.592 1.109 4.852 2.63 6.78 4.563a21.52 21.52 0 0 1 4.552 6.748c1.107 2.567 1.66 5.339 1.66 8.317 0 2.915-.553 5.672-1.66 8.27-1.106 2.598-2.623 4.847-4.552 6.749-1.928 1.9-4.188 3.421-6.78 4.562-2.592 1.14-5.342 1.71-8.25 1.71zm40.966-34.79c-1.707 0-3.145-.601-4.315-1.805-1.17-1.204-1.754-2.63-1.754-4.277 0-1.711.585-3.153 1.754-4.325 1.17-1.173 2.608-1.759 4.315-1.759 1.644 0 3.066.586 4.267 1.759 1.201 1.172 1.802 2.614 1.802 4.325 0 1.647-.6 3.073-1.802 4.277-1.201 1.204-2.623 1.806-4.267 1.806zm-40.966.286c-3.793 0-7.017 1.33-9.672 3.992-2.655 2.662-3.983 5.893-3.983 9.696 0 3.802 1.328 7.033 3.983 9.695 2.655 2.661 5.88 3.992 9.672 3.992 3.793 0 7.018-1.33 9.673-3.992 2.655-2.662 3.982-5.893 3.982-9.695 0-3.803-1.327-7.034-3.982-9.696-2.655-2.661-5.88-3.992-9.673-3.992z" fill="#4A4A4A"/><circle fill="#FFF" cx="153" cy="341" r="26"/><circle fill="#FFF" cx="193" cy="320" r="9"/><path fill="#FFF" d="M136 300h18v14h-18z"/><path d="M201.931 306.125l-45.517.095v-9.03l-24.276-.19v9.125h-6.069c-1.644 0-3.066.602-4.267 1.806-1.201 1.204-1.802 2.63-1.802 4.277v51.709c0 1.647.6 3.073 1.802 4.277 1.2 1.204 2.623 1.806 4.267 1.806h75.862c1.644 0 3.066-.602 4.267-1.806 1.201-1.204 1.802-2.63 1.802-4.277v-51.709c0-1.647-.6-3.073-1.802-4.277-1.2-1.204-2.623-1.806-4.267-1.806zm-63.724-3.042h12.138v9.125h-12.138v-9.125zm15.172 57.697c-2.908 0-5.658-.57-8.25-1.711-2.592-1.14-4.852-2.661-6.78-4.562-1.928-1.902-3.445-4.151-4.552-6.75-1.106-2.597-1.66-5.354-1.66-8.269 0-2.978.554-5.75 1.66-8.317a21.52 21.52 0 0 1 4.552-6.748c1.928-1.933 4.188-3.454 6.78-4.563 2.592-1.109 5.342-1.663 8.25-1.663 2.908 0 5.658.554 8.25 1.663 2.592 1.109 4.852 2.63 6.78 4.563a21.52 21.52 0 0 1 4.552 6.748c1.107 2.567 1.66 5.339 1.66 8.317 0 2.915-.553 5.672-1.66 8.27-1.106 2.598-2.623 4.847-4.552 6.749-1.928 1.9-4.188 3.421-6.78 4.562-2.592 1.14-5.342 1.71-8.25 1.71zm40.966-34.79c-1.707 0-3.145-.601-4.315-1.805-1.17-1.204-1.754-2.63-1.754-4.277 0-1.711.585-3.153 1.754-4.325 1.17-1.173 2.608-1.759 4.315-1.759 1.644 0 3.066.586 4.267 1.759 1.201 1.172 1.802 2.614 1.802 4.325 0 1.647-.6 3.073-1.802 4.277-1.201 1.204-2.623 1.806-4.267 1.806zm-40.966.286c-3.793 0-7.017 1.33-9.672 3.992-2.655 2.662-3.983 5.893-3.983 9.696 0 3.802 1.328 7.033 3.983 9.695 2.655 2.661 5.88 3.992 9.672 3.992 3.793 0 7.018-1.33 9.673-3.992 2.655-2.662 3.982-5.893 3.982-9.695 0-3.803-1.327-7.034-3.982-9.696-2.655-2.661-5.88-3.992-9.673-3.992z" fill="#E5523D"/><path d="M250 154l15.98 63.402 31.04-9.833-27.761-33.8 35.75 31.342L334 196.097 250 154zm47.941 76v-17.515l-10.243 3.073L297.94 230z" fill="#4A4A4A"/><path d="M250 294l15.98 63.402 31.04-9.833-27.761-33.8 35.75 31.342L334 336.097 250 294zm47.941 76v-17.515l-10.243 3.073L297.94 370z" fill="#E5523D"/><path d="M66 394.375c0-1.185-.594-2.21-1.781-3.076C63.03 390.433 61.625 390 60 390H36c-1.625 0-3.031.433-4.219 1.299-1.187.866-1.781 1.891-1.781 3.076V400h36v-5.625zm-3.25 19.942V403h-28.5v11.317c-4.849 0-8.436 1.87-10.762 5.607C21.163 423.66 20 428.17 20 433.454V510h57v-76.546c0-5.283-1.187-9.793-3.563-13.53-2.375-3.738-5.937-5.607-10.687-5.607zM37.023 445.97a15.27 15.27 0 0 1-1.089-.703c-2.434-1.724-4.623-4.531-4.204-7.466.219-1.534 2.45-2.345 3.56-1.14.283.308.472.7.536 1.117.052.337.027.685.108 1.02.484 2.025 2.463 3.246 4.17 4.05 6.113 2.88 14.26 2.992 19.321-1.812.105-.1.207-.203.306-.309.663-.713 1.193-1.625 1.198-2.635 0 0 .254-2.176 2.237-2.09 1.86.224 2.368 2.839 1.136 5.374-.932 1.917-2.405 3.448-4.223 4.614 3.871.92 7.554 3.345 8.69 6.257.44 1.127.267 2.448-.667 3.238-2.22 1.878-6.085.764-9.087-.68l-.154-.075c1.313 2.929 1.789 6.372 1.06 9.739-1.316 6.088-6.86 11.553-13.363 10.368-6.863-1.25-11.355-9.607-9.694-17.288.175-.809.421-1.605.731-2.376-3.586 2.03-9.402 3.37-9.59-.772-.132-2.87 2.822-5.263 5.559-6.861 1.118-.653 2.26-1.208 3.459-1.57zM53.106 451c-1.34-1.18-3.001-1.945-4.933-2a9.697 9.697 0 0 0-.229 0c-5.792.069-10.016 7.511-8.703 14.258 1.056 5.43 6.05 10.552 11.661 8.119 4.993-2.165 7.32-9.403 5.461-15.209-.457-1.428-1.168-2.804-2.104-3.962A9.805 9.805 0 0 1 53.106 451zm-14.444-3.998c-3.384.158-7.364 2.673-8.548 5.949a2.298 2.298 0 0 0-.083.28c-.013.055-.022.11-.028.167-.174 1.74 7.065-.422 9.495-4.844.348-.633 1.237-1.578-.745-1.555l-.09.003zm18.98.008c-.829-.011-2.304-.18-1.31 1.32 2.167 3.274 8.16 5.764 10.48 4.179 1.19-.812-3.527-4.38-7.318-5.252-.62-.142-1.119-.231-1.852-.247zm-15.642.02l.041-.022-.015-.004L42 447v.03zM201.931 446.125l-45.517.095v-9.03l-24.276-.19v9.125h-6.069c-1.644 0-3.066.602-4.267 1.806-1.201 1.204-1.802 2.63-1.802 4.277v51.709c0 1.647.6 3.073 1.802 4.277 1.2 1.204 2.623 1.806 4.267 1.806h75.862c1.644 0 3.066-.602 4.267-1.806 1.201-1.204 1.802-2.63 1.802-4.277v-51.709c0-1.647-.6-3.073-1.802-4.277-1.2-1.204-2.623-1.806-4.267-1.806zm-63.724-3.042h12.138v9.125h-12.138v-9.125zm15.172 57.697c-2.908 0-5.658-.57-8.25-1.711-2.592-1.14-4.852-2.661-6.78-4.562-1.928-1.902-3.445-4.151-4.552-6.75-1.106-2.597-1.66-5.354-1.66-8.269 0-2.978.554-5.75 1.66-8.317a21.52 21.52 0 0 1 4.552-6.748c1.928-1.933 4.188-3.454 6.78-4.563 2.592-1.109 5.342-1.663 8.25-1.663 2.908 0 5.658.554 8.25 1.663 2.592 1.109 4.852 2.63 6.78 4.563a21.52 21.52 0 0 1 4.552 6.748c1.107 2.567 1.66 5.339 1.66 8.317 0 2.915-.553 5.672-1.66 8.27-1.106 2.598-2.623 4.847-4.552 6.749-1.928 1.9-4.188 3.421-6.78 4.562-2.592 1.14-5.342 1.71-8.25 1.71zm40.966-34.79c-1.707 0-3.145-.601-4.315-1.805-1.17-1.204-1.754-2.63-1.754-4.277 0-1.711.585-3.153 1.754-4.325 1.17-1.173 2.608-1.759 4.315-1.759 1.644 0 3.066.586 4.267 1.759 1.201 1.172 1.802 2.614 1.802 4.325 0 1.647-.6 3.073-1.802 4.277-1.201 1.204-2.623 1.806-4.267 1.806zm-40.966.286c-3.793 0-7.017 1.33-9.672 3.992-2.655 2.662-3.983 5.893-3.983 9.696 0 3.802 1.328 7.033 3.983 9.695 2.655 2.661 5.88 3.992 9.672 3.992 3.793 0 7.018-1.33 9.673-3.992 2.655-2.662 3.982-5.893 3.982-9.695 0-3.803-1.327-7.034-3.982-9.696-2.655-2.661-5.88-3.992-9.673-3.992zM250 434l15.98 63.402 31.04-9.833-27.761-33.8 35.75 31.342L334 476.097 250 434zm47.941 76v-17.515l-10.243 3.073L297.94 510z" fill="#FFF"/></g></svg>