<svg xmlns="http://www.w3.org/2000/svg" width="284" height="285" viewBox="0 0 284 285">
  <polygon fill="#FFFFFF" fill-rule="evenodd" points="978.842 12.322 1012.972 132.185 1008.222 7.649 1016.686 131.987 1037.932 9.185 1020.358 132.566 1066.673 16.866 1023.831 133.897 1093.188 30.353 1026.951 135.921 1116.321 49.059 1029.582 138.548 1135.06 72.167 1031.61 141.666 1148.583 98.663 1032.945 145.135 1156.302 127.394 1033.528 148.809 1157.879 157.102 1033.338 152.522 1153.246 186.488 1032.377 156.115 1142.603 214.269 1030.692 159.429 1126.418 239.23 1028.353 162.321 1105.396 260.281 1025.465 164.663 1080.457 276.5 1022.153 166.353 1052.691 287.181 1018.562 167.319 1023.312 291.855 1014.848 167.516 993.601 290.318 1011.174 166.936 964.86 282.638 1007.702 165.606 938.344 269.15 1004.582 163.583 915.212 250.444 1001.95 160.955 896.474 227.337 999.923 157.838 882.95 200.839 998.588 154.367 875.23 172.109 998.004 150.695 873.653 142.402 998.196 146.98 878.287 113.014 999.156 143.388 888.929 85.234 1000.842 140.073 905.115 60.273 1003.18 137.182 926.137 39.223 1006.068 134.839 951.076 23.002 1009.38 133.149" transform="translate(-874 -7)"/>
</svg>
